<svg xmlns="http://www.w3.org/2000/svg" width="145" height="39" viewBox="0 0 145 39">
    <g fill="none" fill-rule="evenodd">
        <path fill="#BFEAF4" d="M23 5.021a3.979 3.979 0 1 0 0 7.957 3.979 3.979 0 0 0 0-7.957zM20.315 9a2.683 2.683 0 0 1 4.395-2.067l.005-.002.003-.002.005-.003.005-.003.005-.001.005-.003.005-.002.003-.002.003-.001.002-.001.005-.002.005-.003h.002l.003-.002.005-.001.005-.002.003-.002h.001l.005-.002.005-.002.005-.002.005-.001.005-.002.005-.002h.001l.004-.002.004-.001.005-.002.004-.001h.001l.005-.002.005-.001.005-.002.005-.001.005-.001.006-.002h.001l.004-.001.005-.002.007-.002h.002l.006-.001.005-.002h.005l.005-.001.006-.002h.005l.005-.002h.011l.001-.001.004-.001h.005l.006-.001h.005l.006-.001h.005l.005-.002h.016l.006-.001.004-.001H25.013l.004-.001H25.035c.384 0 .695.31.695.695v.037l-.001.01v.008l-.003.016v.018l-.002.003-.001.009v.004l-.002.005v.009l-.002.004v.005l-.003.008V7.693l-.003.01v.002l-.001.006-.003.008-.001.002-.001.007-.003.008v.002l-.002.007-.003.009-.002.008-.004.009-.002.008-.003.007v.002l-.003.008-.003.006v.002l-.003.008-.003.006-.001.002-.004.008-.002.006-.001.003-.004.008-.002.004-.002.004-.003.007-.003.004-.002.004-.004.008-.001.003-.003.004-.004.008-.002.002-.002.005-.005.008-.001.002-.004.005-.005.008v.001l-.003.006-.005.007-.001.001-.004.006-.005.008h-.001l-.005.007-.005.006-.005.008-.005.005-.001.002-.005.006-.005.006-.001.001-.005.007-.003.005-.003.001-.005.007-.005.004v.002l-.007.006-.004.004-.002.003-.006.006-.003.003-.003.003-.006.007-.003.002-.004.004A2.683 2.683 0 1 1 20.316 9z"/>
        <path fill="#100F0E" d="M22.5 7a2.5 2.5 0 1 0 2.358 1.67l-.003.002h-.002l-.004.002h-.005l-.002.002h-.004l-.002.001-.003.001-.004.001-.003.001h-.003l-.004.002h-.002l-.007.002h-.004l-.002.001-.007.002h-.007l-.003.002h-.006l-.004.001-.004.001h-.003l-.003.001-.003.001h-.004l-.004.001h-.002l-.004.001h-.003l-.004.001h-.006l-.004.002h-.015l-.002.001h-.007l-.003.001h-.008l-.002.001h-.01l-.004.001H24.653l-.003.001h-.007a.732.732 0 0 1-.731-.731v-.038l.001-.007v-.012l.002-.003v-.023l.002-.007v-.007l.001-.007.002-.008.001-.007.001-.007.002-.004v-.01l.002-.008.001-.007.002-.007.001-.004.001-.003.002-.007V7.79h.002l.001-.007.002-.007.001-.004.001-.002.002-.008V7.76l.005-.01v-.001l.001-.007.003-.005v-.002l.002-.007.003-.006V7.72l.002-.006.003-.007.001-.004.001-.002.003-.007.003-.006v-.001l.002-.006.004-.006.001-.005.002-.002.002-.007.003-.006.004-.006.002-.006.003-.005.001-.002.003-.006.003-.006v-.001l.004-.006.007-.012.003-.006.004-.006.003-.006.004-.006.002-.004.002-.002.004-.006.003-.006h.002l.002-.005.004-.006.004-.004.001-.002.004-.006A2.49 2.49 0 0 0 22.5 7"/>
        <path fill="#BFEAF4" d="M7 5.021a3.979 3.979 0 1 0 0 7.957 3.979 3.979 0 0 0 0-7.957zM4.317 9c0-.33.06-.648.17-.94l-.007-.007-.003-.002-.003-.004-.007-.006-.002-.002-.004-.004-.006-.007h-.002l-.005-.006-.006-.006v-.001l-.005-.006-.006-.006-.006-.007-.005-.006-.006-.007-.005-.007-.006-.008-.003-.004-.002-.003-.005-.006-.003-.005-.007-.01-.003-.004-.007-.01-.002-.004-.008-.011-.001-.003-.003-.005-.006-.01-.003-.006-.004-.008-.009-.015-.003-.008-.004-.007v-.001l-.004-.008-.003-.006-.002-.002-.002-.008-.003-.006-.001-.003-.003-.008-.003-.005-.004-.012-.001-.003-.002-.005-.003-.008-.001-.003-.002-.006-.003-.008v-.003l-.005-.015v-.001l-.002-.007-.002-.01-.003-.008-.002-.008-.002-.01-.002-.007v-.002l-.002-.009v-.006l-.002-.003V7.66l-.002-.006V7.65l-.001-.01-.001-.003v-.005l-.002-.01V7.613l-.001-.009v-.003l-.002-.016V7.548c0-.384.31-.695.694-.695H5.001l.005.002h.017l.004.001h.001l.005.001h.006l.005.001h.006l.005.002h.007l.004.001h.005l.006.002h.005l.005.002.005.001h.005v.001l.006.002h.005l.005.002h.006l.004.002.006.001h.001l.004.002.005.001.005.001.003.001.002.001.006.002.005.001h.003l.001.001.006.002.005.002.004.002.006.001.005.002.01.004.005.002.005.001.001.001.004.001.004.002.005.002.01.005.004.002.03.013.004.003.004.002.005.003.005.002A2.684 2.684 0 1 1 4.316 9z"/>
        <path fill="#100F0E" d="M7.5 7c-.589 0-1.13.204-1.556.545l.002.003.002.003.003.005.004.006.004.005.004.006.002.004.002.002.007.012.007.012.002.004.002.002.003.006.004.008.003.004.005.011v.002l.004.006.004.006v.002l.002.005.003.006.003.005v.001l.003.007.003.006v.003l.003.004.005.012.002.007.003.007.001.003.001.004.002.006.003.007.006.017v.003l.005.013v.001l.001.007.004.01v.003l.002.007.001.007v.001l.002.005.001.008.002.005v.002l.002.007v.008h.001v.006l.002.008.001.005v.002l.001.007.002.007v.007l.001.008v.007l.001.007.002.01V7.952l.002.005v.015a.732.732 0 0 1-.732.731h-.027l-.003-.001h-.02L5.295 8.7h-.002l-.014-.002h-.014l-.003-.001H5.26l-.003-.001h-.007l-.003-.001-.003-.001h-.007l-.003-.001-.004-.001h-.002l-.003-.001h-.008l-.002-.002h-.007l-.005-.002h-.004l-.004-.001-.003-.001h-.003l-.003-.002h-.003l-.003-.001h-.004l-.003-.001-.003-.001h-.003V8.68h-.004l-.005-.003h-.004l-.005-.002h-.001l-.003-.001-.003-.002A2.5 2.5 0 1 0 7.5 7"/>
        <path fill="#F47935" d="M13.059 15.482l2.498 5.488 2.384-5.455-2.382-1.486-2.5 1.453"/>
        <path fill="#000" d="M1.827 14.336c0 .119.006.231.007.348a9.434 9.434 0 0 1-.007-.348 7.437 7.437 0 0 0 2.675 1.701C4.165 26.317 10 31.902 15.809 32.1c5.808-.198 11.644-5.784 11.307-16.063a7.437 7.437 0 0 0 2.675-1.7c0 .117-.003.232-.006.347 0-.117.006-.23.006-.348 3.35 5.692 1.753 10.602-2.806 15.467l.536-4.69c-2.626 5.268-7.176 7.882-11.712 7.847-4.537.035-9.085-2.579-11.712-7.847l.536 4.69c-4.559-4.865-6.155-9.775-2.806-15.467"/>
        <path fill="#F47935" d="M10 34.048a.95.95 0 0 1 .947.948v3.009a.95.95 0 0 1-.948.947.95.95 0 0 1-.946-.947v-3.01a.95.95 0 0 1 .946-.947M12 34.048a.95.95 0 0 1 .947.948v3.009a.95.95 0 0 1-.947.947.95.95 0 0 1-.947-.947v-3.01a.95.95 0 0 1 .947-.947M14 34.048a.95.95 0 0 1 .948.948v3.009a.95.95 0 0 1-.948.947.95.95 0 0 1-.947-.947v-3.01a.95.95 0 0 1 .947-.947M22 34.048a.95.95 0 0 0-.947.948v3.009a.95.95 0 0 0 .947.947.95.95 0 0 0 .948-.947v-3.01a.95.95 0 0 0-.948-.947M20 34.048a.95.95 0 0 0-.948.948v3.009a.95.95 0 0 0 .948.947.95.95 0 0 0 .947-.947v-3.01a.95.95 0 0 0-.947-.947M18 34.048a.95.95 0 0 0-.948.948v3.009a.95.95 0 0 0 .948.947.95.95 0 0 0 .947-.947v-3.01a.95.95 0 0 0-.947-.947"/>
        <path fill="#100F0E" d="M17.85 8.592c0-3.252 2.605-5.888 5.819-5.888 3.213 0 5.819 2.636 5.819 5.888 0 3.251-2.606 5.888-5.82 5.888-3.213 0-5.817-2.637-5.817-5.888zm-15.338 0c0-3.252 2.605-5.888 5.819-5.888 3.213 0 5.82 2.636 5.82 5.888 0 3.251-2.607 5.888-5.82 5.888-3.214 0-5.819-2.637-5.819-5.888zm9.368-6.426a7.171 7.171 0 0 0-3.55-.934c-4.016 0-7.272 3.295-7.272 7.36s3.256 7.36 7.273 7.36c4.017 0 7.274-3.295 7.274-7.36a7.38 7.38 0 0 0-2.414-5.476 5.745 5.745 0 0 1 2.594-.595 6.08 6.08 0 0 1 2.871.739l.003-.004a7.38 7.38 0 0 0-2.264 5.336c0 4.065 3.257 7.36 7.274 7.36 4.017 0 7.273-3.295 7.273-7.36s-3.256-7.36-7.273-7.36a7.176 7.176 0 0 0-3.773 1.066 7.362 7.362 0 0 0-4.111-1.25c-1.432 0-2.77.41-3.905 1.118z"/>
        <g fill="#2F5BEA" fill-rule="nonzero">
            <path d="M41 23.202c0-.846.134-1.644.4-2.394.271-.75.65-1.404 1.137-1.962a5.268 5.268 0 0 1 1.706-1.297 4.738 4.738 0 0 1 2.063-.465c.9 0 1.658.227 2.272.682.611.458.992 1.084 1.142 1.878-1.34 0-2.402.36-3.189 1.08-.373.34-.664.756-.872 1.247a4.22 4.22 0 0 0-.307 1.63c0 1.137.327 2.037.982 2.698.658.665 1.544.998 2.656.998.662 0 1.28-.124 1.855-.372a4.69 4.69 0 0 0 1.503-1.014c.425-.428.752-.942.983-1.54.23-.602.345-1.243.345-1.923 0-1.263-.424-2.577-1.273-3.94a17.684 17.684 0 0 0-1.114-1.563 67.516 67.516 0 0 0-1.701-2.039 69.787 69.787 0 0 1-1.63-1.967 16.35 16.35 0 0 1-1.18-1.707c-.852-1.4-1.278-2.776-1.278-4.128 0-1.009.212-1.945.636-2.81a6.779 6.779 0 0 1 1.822-2.266c.787-.643 1.705-1.141 2.755-1.496C51.763.177 52.895 0 54.11 0c2.063 0 3.72.493 4.971 1.48.6.48 1.06 1.054 1.378 1.723.318.669.477 1.413.477 2.233 0 1.075-.269 1.952-.806 2.632a2.508 2.508 0 0 1-.928.76 2.68 2.68 0 0 1-1.174.265c-.962 0-1.743-.404-2.343-1.213.486-.351.87-.82 1.152-1.408a4.301 4.301 0 0 0 .423-1.884c0-.835-.244-1.496-.73-1.984-.487-.484-1.156-.725-2.009-.725a3.5 3.5 0 0 0-1.415.282c-.432.189-.798.46-1.098.815-.31.354-.55.772-.719 1.252a4.59 4.59 0 0 0-.258 1.568c0 .81.189 1.587.565 2.333.377.743.915 1.518 1.614 2.328.625.746 1.3 1.485 2.025 2.216 1.69 1.77 2.884 3.493 3.583 5.17.413.998.62 2.097.62 3.297 0 1.264-.256 2.435-.768 3.513a8.318 8.318 0 0 1-2.195 2.81c-.951.809-2.058 1.435-3.32 1.878-1.266.44-2.618.66-4.055.66-1.226 0-2.333-.16-3.32-.482-.988-.322-1.837-.785-2.547-1.391a6.048 6.048 0 0 1-1.662-2.161c-.38-.831-.571-1.753-.571-2.765zm22.9 14.396L58.105 39 64.52 8.467h5.531l-.62 2.92c1.302-1.111 2.797-1.667 4.483-1.667 1.438 0 2.552.441 3.342 1.324.9 1.034 1.35 2.632 1.35 4.793 0 2.084-.263 4.04-.79 5.868-.662 2.339-1.624 4.15-2.886 5.437-1.552 1.592-3.478 2.388-5.779 2.388-.885 0-1.617-.139-2.195-.416a2.513 2.513 0 0 1-1.07-.964L63.9 37.598zm4.878-23.185l-2.272 10.856c.088.25.254.461.5.631.245.174.567.26.965.26 1.237 0 2.3-.638 3.189-1.917.698-.997 1.262-2.397 1.69-4.2.336-1.452.505-2.893.505-4.322 0-1.275-.233-2.183-.697-2.727-.3-.328-.712-.493-1.235-.493-.465 0-.935.165-1.41.493-.472.33-.884.802-1.235 1.419zm10.278 8.96c0-.794.079-1.677.236-2.648.154-.976.388-1.95.703-2.92a17.184 17.184 0 0 1 1.338-3.087c.546-.972 1.18-1.83 1.905-2.577 1.675-1.718 3.739-2.577 6.19-2.577 1.562 0 2.7.38 3.413 1.142.549.591.823 1.448.823 2.571 0 1.1-.236 2.133-.708 3.098a8.295 8.295 0 0 1-1.97 2.565 10.084 10.084 0 0 1-2.853 1.757c-1.061.432-2.16.687-3.298.765a17.48 17.48 0 0 0-.094 1.551c0 1.264.236 2.135.708 2.616.414.428 1.101.643 2.063.643 1.39 0 2.66-.38 3.809-1.136a9.03 9.03 0 0 0 1.41-1.125c.45-.436.975-.989 1.575-1.657h1.312c-1.215 2.069-2.609 3.716-4.182 4.943-1.939 1.488-4.064 2.233-6.376 2.233-1.888 0-3.346-.48-4.374-1.44-1.087-1.024-1.63-2.596-1.63-4.717zm6.075-3.768a5.133 5.133 0 0 0 2.085-.626 6.606 6.606 0 0 0 1.8-1.44 7.156 7.156 0 0 0 1.235-2.034c.3-.75.45-1.517.45-2.3 0-.517-.072-.912-.214-1.186-.143-.27-.39-.404-.741-.404-.461 0-.926.227-1.394.681-.472.455-.926 1.079-1.36 1.873a17.029 17.029 0 0 0-1.093 2.538 21.784 21.784 0 0 0-.768 2.898zm13.241 9.698h-5.531L98.41 2.92l5.685-.775-2.87 13.653 7.408-5.89h3.808l-7.688 5.397c.436-.114.86-.172 1.273-.172.7 0 1.316.119 1.85.355.53.233.977.563 1.339.992.336.403.592.88.768 1.43.176.55.263 1.141.263 1.773 0 .59-.049 1.082-.148 1.474l-.433 1.934a4.348 4.348 0 0 0-.187 1.247c0 .443.112.794.335 1.052.227.259.614.388 1.163.388.765 0 1.409-.316 1.932-.947.402-.48.834-1.306 1.295-2.477h1.613c-.936 2.863-2.167 4.87-3.693 6.023a5.408 5.408 0 0 1-3.375 1.153c-1.591 0-2.795-.379-3.61-1.136-.82-.757-1.23-1.85-1.23-3.275 0-.62.075-1.297.225-2.028l.319-1.519c.098-.387.148-.86.148-1.418 0-.606-.106-1.07-.319-1.391-.212-.321-.568-.482-1.07-.482-.413 0-.845.12-1.295.36-.45.24-.962.6-1.536 1.08l-2.009 9.582zm15.327-5.93c0-.794.079-1.677.236-2.648.154-.976.388-1.95.702-2.92a16.678 16.678 0 0 1 1.34-3.087c.544-.972 1.18-1.83 1.904-2.577 1.675-1.718 3.738-2.577 6.19-2.577 1.562 0 2.7.38 3.413 1.142.549.591.823 1.448.823 2.571 0 1.1-.236 2.133-.708 3.098a8.295 8.295 0 0 1-1.97 2.565 10.084 10.084 0 0 1-2.854 1.757c-1.06.432-2.16.687-3.298.765a17.48 17.48 0 0 0-.093 1.551c0 1.264.236 2.135.708 2.616.413.428 1.101.643 2.063.643 1.39 0 2.66-.38 3.809-1.136a9.03 9.03 0 0 0 1.41-1.125c.45-.436.975-.989 1.575-1.657h1.311c-1.214 2.069-2.608 3.716-4.181 4.943-1.939 1.488-4.065 2.233-6.377 2.233-1.887 0-3.345-.48-4.373-1.44-1.087-1.024-1.63-2.596-1.63-4.717zm6.075-3.768a5.133 5.133 0 0 0 2.085-.626 6.606 6.606 0 0 0 1.8-1.44 7.156 7.156 0 0 0 1.235-2.034c.3-.75.45-1.517.45-2.3 0-.517-.072-.912-.214-1.186-.143-.27-.39-.404-.741-.404-.461 0-.928.227-1.4.681-.468.455-.92 1.079-1.355 1.873a17.029 17.029 0 0 0-1.092 2.538 21.784 21.784 0 0 0-.768 2.898zm8.665 3.768c0-.794.078-1.677.236-2.648a20.04 20.04 0 0 1 .702-2.92c.351-1.087.8-2.116 1.344-3.087a12.1 12.1 0 0 1 1.905-2.577c1.675-1.718 3.738-2.577 6.19-2.577 1.562 0 2.7.38 3.413 1.142.549.591.823 1.448.823 2.571 0 1.1-.238 2.133-.713 3.098a8.295 8.295 0 0 1-1.97 2.565 10.107 10.107 0 0 1-2.849 1.757 10.655 10.655 0 0 1-3.303.765 17.48 17.48 0 0 0-.093 1.551c0 1.264.237 2.135.713 2.616.413.428 1.101.643 2.063.643a6.79 6.79 0 0 0 3.809-1.136 9.166 9.166 0 0 0 1.405-1.125c.45-.436.975-.989 1.574-1.657H145c-1.21 2.069-2.605 3.716-4.182 4.943-1.938 1.488-4.064 2.233-6.376 2.233-1.888 0-3.344-.48-4.368-1.44-1.09-1.024-1.635-2.596-1.635-4.717zm6.08-3.768a5.093 5.093 0 0 0 2.08-.626 6.498 6.498 0 0 0 1.8-1.44 7.09 7.09 0 0 0 1.24-2.034c.3-.75.45-1.517.45-2.3 0-.517-.072-.912-.214-1.186-.147-.27-.394-.404-.741-.404-.465 0-.931.227-1.4.681-.468.455-.921 1.079-1.36 1.873-.4.746-.761 1.592-1.087 2.538a20.722 20.722 0 0 0-.768 2.898z"/>
        </g>
    </g>
</svg>
